<svg width="90" height="86" viewBox="0 0 90 86" fill="none" xmlns="http://www.w3.org/2000/svg">
<g filter="url(#filter0_d_132_146370)">
<circle cx="45" cy="34" r="28" fill="white"/>
</g>
<path d="M52.7476 23.96C52.641 23.96 52.5343 23.9333 52.441 23.88C49.881 22.56 47.6676 22 45.0143 22C42.3743 22 39.8676 22.6266 37.5876 23.88C37.2676 24.0533 36.8676 23.9333 36.681 23.6133C36.5978 23.4574 36.5792 23.275 36.629 23.1055C36.6789 22.9359 36.7933 22.7927 36.9476 22.7066C39.4276 21.36 42.1476 20.6666 45.0143 20.6666C47.8543 20.6666 50.3343 21.2933 53.0543 22.6933C53.3876 22.8666 53.5076 23.2666 53.3343 23.5866C53.2816 23.6978 53.1985 23.7918 53.0948 23.8578C52.991 23.9239 52.8706 23.9593 52.7476 23.96ZM33.6676 30.96C33.5447 30.9611 33.4239 30.9282 33.3186 30.8648C33.2132 30.8015 33.1275 30.7102 33.0709 30.6011C33.0143 30.492 32.989 30.3694 32.9978 30.2468C33.0067 30.1242 33.0493 30.0065 33.121 29.9066C34.441 28.04 36.121 26.5733 38.121 25.5466C42.3076 23.3866 47.6676 23.3733 51.8676 25.5333C53.8676 26.56 55.5476 28.0133 56.8676 29.8666C56.9188 29.9383 56.9552 30.0194 56.9749 30.1052C56.9945 30.191 56.997 30.2799 56.9821 30.3666C56.9673 30.4534 56.9353 30.5364 56.8882 30.6108C56.8411 30.6851 56.7797 30.7494 56.7076 30.8C56.401 31.0133 55.9876 30.9466 55.7743 30.64C54.6067 28.9871 53.0557 27.642 51.2543 26.72C47.4276 24.76 42.5343 24.76 38.721 26.7333C36.9076 27.6666 35.3876 29 34.1876 30.68C34.081 30.8666 33.881 30.96 33.6676 30.96ZM42.001 47.0533C41.9135 47.0544 41.8268 47.0371 41.7465 47.0027C41.6661 46.9682 41.5938 46.9173 41.5343 46.8533C40.3743 45.6933 39.7476 44.9466 38.8543 43.3333C37.9343 41.6933 37.4543 39.6933 37.4543 37.5466C37.4543 33.5866 40.841 30.36 45.001 30.36C49.161 30.36 52.5476 33.5866 52.5476 37.5466C52.5476 37.92 52.2543 38.2133 51.881 38.2133C51.5076 38.2133 51.2143 37.92 51.2143 37.5466C51.2143 34.32 48.4276 31.6933 45.001 31.6933C41.5743 31.6933 38.7876 34.32 38.7876 37.5466C38.7876 39.4666 39.2143 41.24 40.0276 42.68C40.881 44.2133 41.4676 44.8666 42.4943 45.9066C42.7476 46.1733 42.7476 46.5866 42.4943 46.8533C42.3476 46.9866 42.1743 47.0533 42.001 47.0533ZM51.561 44.5866C49.9743 44.5866 48.5743 44.1866 47.4276 43.4C45.441 42.0533 44.2543 39.8666 44.2543 37.5466C44.2543 37.1733 44.5476 36.88 44.921 36.88C45.2943 36.88 45.5876 37.1733 45.5876 37.5466C45.5876 39.4266 46.5476 41.2 48.1743 42.2933C49.121 42.9333 50.2276 43.24 51.561 43.24C51.881 43.24 52.4143 43.2 52.9476 43.1066C53.3076 43.04 53.6543 43.28 53.721 43.6533C53.7876 44.0133 53.5476 44.36 53.1743 44.4266C52.4143 44.5733 51.7476 44.5866 51.561 44.5866ZM48.881 47.3333C48.8276 47.3333 48.761 47.32 48.7076 47.3066C46.5876 46.72 45.201 45.9333 43.7476 44.5066C42.8267 43.5973 42.0964 42.5133 41.5996 41.3182C41.1028 40.1231 40.8494 38.8409 40.8543 37.5466C40.8543 35.3866 42.6943 33.6266 44.961 33.6266C47.2276 33.6266 49.0676 35.3866 49.0676 37.5466C49.0676 38.9733 50.3076 40.1333 51.841 40.1333C53.3743 40.1333 54.6143 38.9733 54.6143 37.5466C54.6143 32.52 50.281 28.44 44.9476 28.44C41.161 28.44 37.6943 30.5466 36.1343 33.8133C35.6143 34.8933 35.3476 36.16 35.3476 37.5466C35.3476 38.5866 35.441 40.2266 36.241 42.36C36.3743 42.7066 36.201 43.0933 35.8543 43.2133C35.5076 43.3466 35.121 43.16 35.001 42.8266C34.3585 41.1404 34.0286 39.3511 34.0276 37.5466C34.0276 35.9466 34.3343 34.4933 34.9343 33.2266C36.7076 29.5066 40.641 27.0933 44.9476 27.0933C51.0143 27.0933 55.9476 31.7733 55.9476 37.5333C55.9476 39.6933 54.1076 41.4533 51.841 41.4533C49.5743 41.4533 47.7343 39.6933 47.7343 37.5333C47.7343 36.1066 46.4943 34.9466 44.961 34.9466C43.4276 34.9466 42.1876 36.1066 42.1876 37.5333C42.1876 39.8133 43.0676 41.9466 44.681 43.5466C45.9476 44.8 47.161 45.4933 49.041 46.0133C49.401 46.1066 49.601 46.48 49.5076 46.8266C49.441 47.1333 49.161 47.3333 48.881 47.3333Z" fill="#6E7191" stroke="#6E7191" stroke-width="0.5"/>
<path d="M4.38577 83.104C6.47877 83.104 7.88277 81.895 7.88277 79.815V73.9H6.58277V79.854C6.58277 81.154 5.69877 81.895 4.38577 81.895C3.08577 81.895 2.20177 81.154 2.20177 79.854V73.9H0.901766V79.815C0.901766 81.895 2.30577 83.104 4.38577 83.104ZM11.7476 83.104C13.2296 83.104 14.2046 82.337 14.2046 81.141C14.2046 78.151 10.4606 79.815 10.4606 78.19C10.4606 77.683 10.9156 77.345 11.5916 77.345C12.1506 77.345 12.8786 77.644 12.9696 78.398H14.1526C14.0876 77.163 13.0736 76.344 11.5916 76.344C10.2266 76.344 9.26463 77.098 9.26463 78.229C9.26463 81.024 12.9826 79.425 12.9826 81.167C12.9826 81.648 12.5016 82.051 11.7476 82.051C10.9026 82.051 10.3566 81.622 10.2786 80.868H9.09563C9.18663 82.246 10.2136 83.104 11.7476 83.104ZM20.1569 80.868C19.9749 81.609 19.3509 82.025 18.3889 82.025C17.2449 82.025 16.4389 81.18 16.3349 79.945H21.3399C21.3529 79.828 21.3659 79.62 21.3659 79.451C21.3659 77.787 20.2869 76.344 18.2589 76.344C16.2439 76.344 15.0999 77.852 15.0999 79.685C15.0999 81.505 16.3609 83.104 18.3889 83.104C20.0009 83.104 21.1839 82.22 21.4179 80.868H20.1569ZM18.2589 77.358C19.3379 77.358 20.0139 78.021 20.0919 79.022H16.3739C16.5689 77.93 17.2319 77.358 18.2589 77.358ZM25.7628 83H27.1148V79.009H30.7418V77.813H27.1148V75.096H31.5998V73.9H25.7628V83ZM32.8042 73.705V75.291H34.2082V73.705H32.8042ZM32.8822 83H34.1432V76.448H32.8822V83ZM35.7386 83H36.9996V79.451C36.9996 78.307 37.7276 77.475 38.7546 77.475C39.6776 77.475 40.2886 78.177 40.2886 79.217V83H41.5496V78.97C41.5496 77.41 40.5876 76.344 39.1056 76.344C38.1306 76.344 37.3506 76.786 36.9996 77.605V76.448H35.7386V83ZM48.0664 76.448V77.319C47.6634 76.747 46.8574 76.344 45.9864 76.344C43.9844 76.344 42.8534 77.774 42.8534 79.724C42.8534 81.674 43.9844 83.104 45.9994 83.104C46.9224 83.104 47.7544 82.727 48.0664 82.168V83.234C48.0664 84.027 47.5204 84.599 46.7664 84.599H43.7374V85.652H46.8964C48.3264 85.652 49.3274 84.69 49.3274 83.312V76.448H48.0664ZM46.1424 81.999C44.9334 81.999 44.1404 81.102 44.1404 79.724C44.1404 78.346 44.9334 77.449 46.1424 77.449C47.3644 77.449 48.1574 78.346 48.1574 79.724C48.1574 81.102 47.3644 81.999 46.1424 81.999ZM55.6657 80.868C55.4837 81.609 54.8597 82.025 53.8977 82.025C52.7537 82.025 51.9477 81.18 51.8437 79.945H56.8487C56.8617 79.828 56.8747 79.62 56.8747 79.451C56.8747 77.787 55.7957 76.344 53.7677 76.344C51.7527 76.344 50.6087 77.852 50.6087 79.685C50.6087 81.505 51.8697 83.104 53.8977 83.104C55.5097 83.104 56.6927 82.22 56.9267 80.868H55.6657ZM53.7677 77.358C54.8467 77.358 55.5227 78.021 55.6007 79.022H51.8827C52.0777 77.93 52.7407 77.358 53.7677 77.358ZM61.9545 77.54V76.448H61.1615C60.2385 76.448 59.7185 76.838 59.4195 77.709V76.448H58.1585V83H59.4195V80.036C59.4195 78.606 59.8095 77.54 61.0055 77.54H61.9545ZM63.0605 85.652H64.3215V82.077C64.6985 82.701 65.4785 83.104 66.3495 83.104C68.3385 83.104 69.5215 81.674 69.5215 79.724C69.5215 77.774 68.3905 76.344 66.4145 76.344C65.5045 76.344 64.7115 76.773 64.3215 77.423V76.448H63.0605V85.652ZM66.2325 81.999C65.0105 81.999 64.2175 81.089 64.2175 79.724C64.2175 78.359 65.0105 77.449 66.2325 77.449C67.4415 77.449 68.2475 78.359 68.2475 79.724C68.2475 81.089 67.4415 81.999 66.2325 81.999ZM74.5483 77.54V76.448H73.7553C72.8323 76.448 72.3123 76.838 72.0133 77.709V76.448H70.7523V83H72.0133V80.036C72.0133 78.606 72.4033 77.54 73.5993 77.54H74.5483ZM75.5112 73.705V75.291H76.9152V73.705H75.5112ZM75.5892 83H76.8502V76.448H75.5892V83ZM78.4456 83H79.7066V79.451C79.7066 78.307 80.4346 77.475 81.4616 77.475C82.3846 77.475 82.9956 78.177 82.9956 79.217V83H84.2566V78.97C84.2566 77.41 83.2946 76.344 81.8126 76.344C80.8376 76.344 80.0576 76.786 79.7066 77.605V76.448H78.4456V83ZM86.3979 74.394V76.448H85.0589V77.54H86.3979V80.855C86.3979 82.194 87.2429 83 88.5689 83H89.5959V81.908H88.6729C88.0359 81.908 87.6589 81.518 87.6589 80.816V77.54H89.5959V76.448H87.6589V74.394H86.3979Z" fill="#6E7191"/>
<defs>
<filter id="filter0_d_132_146370" x="9" y="0" width="72" height="72" filterUnits="userSpaceOnUse" color-interpolation-filters="sRGB">
<feFlood flood-opacity="0" result="BackgroundImageFix"/>
<feColorMatrix in="SourceAlpha" type="matrix" values="0 0 0 0 0 0 0 0 0 0 0 0 0 0 0 0 0 0 127 0" result="hardAlpha"/>
<feOffset dy="2"/>
<feGaussianBlur stdDeviation="4"/>
<feComposite in2="hardAlpha" operator="out"/>
<feColorMatrix type="matrix" values="0 0 0 0 0 0 0 0 0 0 0 0 0 0 0 0 0 0 0.1 0"/>
<feBlend mode="normal" in2="BackgroundImageFix" result="effect1_dropShadow_132_146370"/>
<feBlend mode="normal" in="SourceGraphic" in2="effect1_dropShadow_132_146370" result="shape"/>
</filter>
</defs>
</svg>
