<svg width="80" height="80" viewBox="0 0 80 80" fill="none" xmlns="http://www.w3.org/2000/svg">
<g filter="url(#filter0_d_132_145648)">
<circle cx="40" cy="32" r="24" fill="#2196F3"/>
</g>
<rect width="24" height="24" transform="translate(28 20)" fill="#2196F3"/>
<path fill-rule="evenodd" clip-rule="evenodd" d="M38.835 32.0066L38.8366 32.3607C38.8487 33.7652 38.9334 35.0183 39.0794 35.8124C39.0794 35.8267 39.2387 36.6143 39.3401 36.8764C39.4994 37.2554 39.7874 37.577 40.1485 37.7808C40.4376 37.9262 40.7408 38 41.0583 38C41.3078 37.9884 41.7194 37.8629 42.0131 37.7576L42.2572 37.664C43.8739 37.0218 46.9644 34.9234 48.148 33.6402L48.2353 33.5505L48.6247 33.1302C48.8702 32.8085 49 32.4153 49 31.9923C49 31.6134 48.8844 31.2344 48.6531 30.9282C48.5839 30.829 48.4723 30.7017 48.3731 30.5942L47.994 30.1974C46.6895 28.8757 43.8652 27.0218 42.4012 26.4076C42.4012 26.3943 41.4914 26.0143 41.0583 26H41.0005C40.3361 26 39.7154 26.3789 39.3979 26.9914C39.3112 27.1588 39.228 27.4868 39.1648 27.7748L39.051 28.3187C38.9212 29.1933 38.835 30.535 38.835 32.0066ZM32.5033 30.4817C31.6731 30.4817 31 31.1613 31 31.9996C31 32.8378 31.6731 33.5175 32.5033 33.5175L36.2025 33.1903C36.8537 33.1903 37.3817 32.6583 37.3817 31.9996C37.3817 31.3419 36.8537 30.8088 36.2025 30.8088L32.5033 30.4817Z" fill="white"/>
<defs>
<filter id="filter0_d_132_145648" x="0" y="0" width="80" height="80" filterUnits="userSpaceOnUse" color-interpolation-filters="sRGB">
<feFlood flood-opacity="0" result="BackgroundImageFix"/>
<feColorMatrix in="SourceAlpha" type="matrix" values="0 0 0 0 0 0 0 0 0 0 0 0 0 0 0 0 0 0 127 0" result="hardAlpha"/>
<feOffset dy="8"/>
<feGaussianBlur stdDeviation="8"/>
<feComposite in2="hardAlpha" operator="out"/>
<feColorMatrix type="matrix" values="0 0 0 0 0.129412 0 0 0 0 0.588235 0 0 0 0 0.952941 0 0 0 0.25 0"/>
<feBlend mode="normal" in2="BackgroundImageFix" result="effect1_dropShadow_132_145648"/>
<feBlend mode="normal" in="SourceGraphic" in2="effect1_dropShadow_132_145648" result="shape"/>
</filter>
</defs>
</svg>
