<svg width="28" height="28" viewBox="0 0 28 28" fill="none" xmlns="http://www.w3.org/2000/svg">
<path opacity="0.4" d="M6.59535 27.3333C3.32735 27.3333 0.666016 24.6264 0.666016 21.3006L0.666016 14.6858C0.666016 11.3669 3.31935 8.66668 6.58202 8.66668H21.4034C24.6727 8.66668 27.3327 11.3737 27.3327 14.7007V21.3128C27.3327 24.6331 24.6793 27.3333 21.4167 27.3333H20.1633H6.59535Z" fill="#130F26"/>
<path d="M13.2721 0.961451L9.39342 4.75584C8.99342 5.148 8.99342 5.7791 9.39608 6.16997C9.79875 6.55953 10.4481 6.55824 10.8481 6.16737L12.9721 4.08838V6.08167V17.2687C12.9721 17.8206 13.4321 18.2686 13.9988 18.2686C14.5668 18.2686 15.0254 17.8206 15.0254 17.2687V4.08838L17.1494 6.16737C17.5494 6.55824 18.1988 6.55953 18.6014 6.16997C18.8028 5.97388 18.9041 5.71807 18.9041 5.46095C18.9041 5.20644 18.8027 4.95062 18.6041 4.75584L14.7268 0.961451C14.5334 0.773159 14.2721 0.666677 13.9988 0.666677C13.7268 0.666677 13.4654 0.773159 13.2721 0.961451Z" fill="#130F26"/>
</svg>
